<svg width="109" height="44" viewBox="0 0 109 44" fill="none" xmlns="http://www.w3.org/2000/svg">
<path d="M15.8817 0C14.7568 1.93016 14.1133 4.16902 14.1133 6.55643C14.1133 13.8218 20.0729 19.7117 27.4245 19.7117C29.4315 19.7117 31.3347 19.2726 33.0412 18.4865C34.3836 21.5198 35.2831 24.7208 35.2831 27.8688C35.2831 36.9788 27.1705 44 17.6415 44C8.1126 44 1.64431e-05 36.9787 0 27.8662C0 21.0288 4.239 13.9404 8.05714 8.86877C10.2414 5.9709 12.6297 3.22804 15.2045 0.660407C15.4163 0.446958 15.6314 0.236602 15.8497 0.0295229L15.8817 0Z" fill="#6E8CFB"/>
<path d="M58.63 35.5967C56.6646 35.5967 54.9291 35.2752 53.4237 34.6321C51.9392 33.9683 50.6847 33.0867 49.6602 31.9873C48.6566 30.8671 47.8934 29.6121 47.3707 28.2222C46.8689 26.8116 46.618 25.3492 46.618 23.8349V23.1503C46.618 21.719 46.8689 20.3188 47.3707 18.9497C47.8725 17.5806 48.6043 16.3463 49.5661 15.2468C50.5488 14.1474 51.7511 13.2762 53.1728 12.6331C54.6155 11.9693 56.2673 11.6374 58.1282 11.6374C60.1354 11.6374 61.9126 12.0108 63.4598 12.7576C65.007 13.4836 66.2511 14.5104 67.192 15.8381C68.1329 17.1449 68.6869 18.6696 68.8542 20.4121H64.3693C64.223 19.4371 63.8571 18.6074 63.2716 17.9228C62.6862 17.2175 61.944 16.6782 61.0449 16.3048C60.1667 15.9314 59.1945 15.7447 58.1282 15.7447C57.0618 15.7447 56.0896 15.9314 55.2114 16.3048C54.3542 16.6782 53.6224 17.2072 53.016 17.8917C52.4097 18.5763 51.9392 19.3957 51.6047 20.3499C51.2911 21.3041 51.1343 22.362 51.1343 23.5237C51.1343 24.7891 51.312 25.9196 51.6674 26.9154C52.0229 27.9111 52.5247 28.7616 53.1728 29.4669C53.821 30.1514 54.6051 30.6804 55.525 31.0538C56.445 31.4064 57.48 31.5828 58.63 31.5828C60.1563 31.5828 61.4944 31.2716 62.6444 30.6493C63.7944 30.0062 64.6307 29.1765 65.1534 28.16L64.3693 31.7383V25.8885H68.4779V30.9293C67.4952 32.4021 66.157 33.5534 64.4634 34.3832C62.7698 35.1922 60.8254 35.5967 58.63 35.5967ZM57.9086 26.7598V23.4615H70.391V26.7598H57.9086Z" fill="#1D1616"/>
<path d="M73.8955 35.0055V12.2908H78.255V35.0055H73.8955ZM71.7629 15.5269V12.2908H78.255V15.5269H71.7629Z" fill="#1D1616"/>
<path d="M84.0068 35.0055V18.1095H88.3662V35.0055H84.0068ZM81.6233 21.3456V18.1095H88.3662V21.3456H81.6233ZM85.6063 16.087C84.7491 16.087 84.1114 15.8692 83.6932 15.4335C83.2959 14.9772 83.0973 14.4171 83.0973 13.7533C83.0973 13.048 83.2959 12.4775 83.6932 12.0419C84.1114 11.6063 84.7491 11.3885 85.6063 11.3885C86.4636 11.3885 87.0908 11.6063 87.4881 12.0419C87.8854 12.4775 88.084 13.048 88.084 13.7533C88.084 14.4171 87.8854 14.9772 87.4881 15.4335C87.0908 15.8692 86.4636 16.087 85.6063 16.087Z" fill="#1D1616"/>
<path d="M100.908 35.5967C99.4239 35.5967 98.138 35.3478 97.0508 34.8499C95.9845 34.3521 95.0854 33.6883 94.3536 32.8585C93.6427 32.0288 93.1095 31.0953 92.7541 30.0581C92.3987 29.0209 92.2209 27.9629 92.2209 26.8842V26.293C92.2209 25.1521 92.3987 24.0631 92.7541 23.0259C93.1304 21.9679 93.6845 21.0344 94.4163 20.2254C95.1481 19.3957 96.0472 18.7422 97.1135 18.2651C98.2008 17.7672 99.4553 17.5183 100.877 17.5183C102.362 17.5183 103.689 17.8087 104.86 18.3896C106.031 18.9497 106.961 19.7379 107.651 20.7544C108.362 21.7708 108.76 22.9533 108.843 24.3016H104.609C104.505 23.4304 104.128 22.7043 103.48 22.1235C102.853 21.5427 101.985 21.2522 100.877 21.2522C99.9153 21.2522 99.1103 21.4804 98.4621 21.9368C97.8349 22.3932 97.3644 23.0259 97.0508 23.8349C96.7372 24.6231 96.5803 25.5359 96.5803 26.5731C96.5803 27.5688 96.7267 28.4712 97.0194 29.2802C97.3331 30.0892 97.8035 30.7219 98.4307 31.1783C99.0789 31.6346 99.9048 31.8628 100.908 31.8628C101.661 31.8628 102.309 31.728 102.853 31.4583C103.397 31.1886 103.825 30.8152 104.139 30.3381C104.473 29.861 104.682 29.3217 104.766 28.7201H109C108.916 30.0892 108.509 31.2923 107.777 32.3295C107.066 33.346 106.115 34.1446 104.923 34.7255C103.752 35.3063 102.414 35.5967 100.908 35.5967Z" fill="#1D1616"/>
</svg>
